<mxfile host="app.diagrams.net" agent="Mozilla/5.0 (Windows NT 10.0; Win64; x64) AppleWebKit/537.36 (KHTML, like Gecko) Chrome/133.0.0.0 Safari/537.36" version="26.0.14" pages="2">
  <diagram name="Страница — 1" id="Ir_WpKO1pJmieQOjshhj">
    <mxGraphModel dx="1050" dy="653" grid="1" gridSize="10" guides="1" tooltips="1" connect="1" arrows="1" fold="1" page="1" pageScale="1" pageWidth="1169" pageHeight="827" math="0" shadow="0">
      <root>
        <mxCell id="0" />
        <mxCell id="1" parent="0" />
        <mxCell id="OOwrQO7ev4M1bAVle9sB-1" value="" style="ellipse;fillColor=strokeColor;html=1;" vertex="1" parent="1">
          <mxGeometry x="470" y="70" width="40" height="40" as="geometry" />
        </mxCell>
        <mxCell id="OOwrQO7ev4M1bAVle9sB-2" value="Выбор фильма" style="html=1;align=center;verticalAlign=top;rounded=1;absoluteArcSize=1;arcSize=10;dashed=0;whiteSpace=wrap;" vertex="1" parent="1">
          <mxGeometry x="420" y="160" width="140" height="40" as="geometry" />
        </mxCell>
        <mxCell id="OOwrQO7ev4M1bAVle9sB-3" value="Выбор сеанса" style="html=1;align=center;verticalAlign=top;rounded=1;absoluteArcSize=1;arcSize=10;dashed=0;whiteSpace=wrap;" vertex="1" parent="1">
          <mxGeometry x="420" y="230" width="140" height="40" as="geometry" />
        </mxCell>
        <mxCell id="OOwrQO7ev4M1bAVle9sB-4" value="Выбор места" style="html=1;align=center;verticalAlign=top;rounded=1;absoluteArcSize=1;arcSize=10;dashed=0;whiteSpace=wrap;" vertex="1" parent="1">
          <mxGeometry x="420" y="300" width="140" height="40" as="geometry" />
        </mxCell>
        <mxCell id="OOwrQO7ev4M1bAVle9sB-6" value="" style="endArrow=classic;html=1;rounded=0;entryX=0.454;entryY=0.005;entryDx=0;entryDy=0;entryPerimeter=0;" edge="1" parent="1" target="OOwrQO7ev4M1bAVle9sB-2">
          <mxGeometry relative="1" as="geometry">
            <mxPoint x="485" y="110" as="sourcePoint" />
            <mxPoint x="585" y="110" as="targetPoint" />
          </mxGeometry>
        </mxCell>
        <mxCell id="OOwrQO7ev4M1bAVle9sB-11" value="" style="endArrow=classic;html=1;rounded=0;" edge="1" parent="1">
          <mxGeometry relative="1" as="geometry">
            <mxPoint x="481" y="200" as="sourcePoint" />
            <mxPoint x="480" y="230" as="targetPoint" />
          </mxGeometry>
        </mxCell>
        <mxCell id="OOwrQO7ev4M1bAVle9sB-12" value="" style="endArrow=classic;html=1;rounded=0;" edge="1" parent="1">
          <mxGeometry relative="1" as="geometry">
            <mxPoint x="481" y="270" as="sourcePoint" />
            <mxPoint x="480" y="300" as="targetPoint" />
          </mxGeometry>
        </mxCell>
        <mxCell id="OOwrQO7ev4M1bAVle9sB-13" value="" style="endArrow=classic;html=1;rounded=0;entryX=0.454;entryY=0.005;entryDx=0;entryDy=0;entryPerimeter=0;" edge="1" parent="1" source="OOwrQO7ev4M1bAVle9sB-5">
          <mxGeometry relative="1" as="geometry">
            <mxPoint x="471" y="340" as="sourcePoint" />
            <mxPoint x="470" y="390" as="targetPoint" />
          </mxGeometry>
        </mxCell>
        <mxCell id="OOwrQO7ev4M1bAVle9sB-14" value="" style="endArrow=classic;html=1;rounded=0;entryX=0.5;entryY=0;entryDx=0;entryDy=0;exitX=0.431;exitY=1.105;exitDx=0;exitDy=0;exitPerimeter=0;" edge="1" parent="1" source="OOwrQO7ev4M1bAVle9sB-4" target="OOwrQO7ev4M1bAVle9sB-5">
          <mxGeometry relative="1" as="geometry">
            <mxPoint x="471" y="340" as="sourcePoint" />
            <mxPoint x="470" y="390" as="targetPoint" />
            <Array as="points">
              <mxPoint x="480" y="360" />
            </Array>
          </mxGeometry>
        </mxCell>
        <mxCell id="OOwrQO7ev4M1bAVle9sB-5" value="Оплата билета" style="html=1;align=center;verticalAlign=top;rounded=1;absoluteArcSize=1;arcSize=10;dashed=0;whiteSpace=wrap;" vertex="1" parent="1">
          <mxGeometry x="410" y="374" width="140" height="40" as="geometry" />
        </mxCell>
        <mxCell id="OOwrQO7ev4M1bAVle9sB-15" style="edgeStyle=orthogonalEdgeStyle;rounded=0;orthogonalLoop=1;jettySize=auto;html=1;exitX=0.5;exitY=1;exitDx=0;exitDy=0;" edge="1" parent="1" source="OOwrQO7ev4M1bAVle9sB-5" target="OOwrQO7ev4M1bAVle9sB-5">
          <mxGeometry relative="1" as="geometry" />
        </mxCell>
        <mxCell id="OOwrQO7ev4M1bAVle9sB-16" value="Оплата успешна?" style="strokeWidth=2;html=1;shape=mxgraph.flowchart.decision;whiteSpace=wrap;" vertex="1" parent="1">
          <mxGeometry x="440" y="450" width="80" height="70" as="geometry" />
        </mxCell>
        <mxCell id="OOwrQO7ev4M1bAVle9sB-17" value="" style="endArrow=classic;html=1;rounded=0;" edge="1" parent="1">
          <mxGeometry relative="1" as="geometry">
            <mxPoint x="480.5" y="414" as="sourcePoint" />
            <mxPoint x="480" y="450" as="targetPoint" />
          </mxGeometry>
        </mxCell>
        <mxCell id="OOwrQO7ev4M1bAVle9sB-18" value="" style="endArrow=classic;html=1;rounded=0;" edge="1" parent="1">
          <mxGeometry relative="1" as="geometry">
            <mxPoint x="440" y="480" as="sourcePoint" />
            <mxPoint x="410" y="540" as="targetPoint" />
          </mxGeometry>
        </mxCell>
        <mxCell id="OOwrQO7ev4M1bAVle9sB-20" value="Да" style="edgeLabel;html=1;align=center;verticalAlign=middle;resizable=0;points=[];" vertex="1" connectable="0" parent="OOwrQO7ev4M1bAVle9sB-18">
          <mxGeometry x="0.0241" y="-4" relative="1" as="geometry">
            <mxPoint x="1" as="offset" />
          </mxGeometry>
        </mxCell>
        <mxCell id="OOwrQO7ev4M1bAVle9sB-19" value="" style="endArrow=classic;html=1;rounded=0;" edge="1" parent="1">
          <mxGeometry relative="1" as="geometry">
            <mxPoint x="510" y="480" as="sourcePoint" />
            <mxPoint x="545" y="540" as="targetPoint" />
          </mxGeometry>
        </mxCell>
        <mxCell id="OOwrQO7ev4M1bAVle9sB-21" value="Нет" style="edgeLabel;html=1;align=center;verticalAlign=middle;resizable=0;points=[];" vertex="1" connectable="0" parent="OOwrQO7ev4M1bAVle9sB-19">
          <mxGeometry x="0.1142" y="-3" relative="1" as="geometry">
            <mxPoint as="offset" />
          </mxGeometry>
        </mxCell>
        <mxCell id="OOwrQO7ev4M1bAVle9sB-27" value="" style="edgeStyle=orthogonalEdgeStyle;rounded=0;orthogonalLoop=1;jettySize=auto;html=1;entryX=0;entryY=0.75;entryDx=0;entryDy=0;" edge="1" parent="1" source="OOwrQO7ev4M1bAVle9sB-22" target="OOwrQO7ev4M1bAVle9sB-5">
          <mxGeometry relative="1" as="geometry">
            <mxPoint x="400" y="390" as="targetPoint" />
          </mxGeometry>
        </mxCell>
        <mxCell id="OOwrQO7ev4M1bAVle9sB-22" value="&lt;span style=&quot;color: rgb(64, 64, 64); font-family: Inter, system-ui, -apple-system, BlinkMacSystemFont, &amp;quot;Segoe UI&amp;quot;, Roboto, &amp;quot;Noto Sans&amp;quot;, Ubuntu, Cantarell, &amp;quot;Helvetica Neue&amp;quot;, Oxygen, &amp;quot;Open Sans&amp;quot;, sans-serif; font-size: 16.002px; text-align: left;&quot;&gt;Отправка билета&lt;/span&gt;" style="html=1;align=center;verticalAlign=top;rounded=1;absoluteArcSize=1;arcSize=10;dashed=0;whiteSpace=wrap;" vertex="1" parent="1">
          <mxGeometry x="340" y="540" width="140" height="50" as="geometry" />
        </mxCell>
        <mxCell id="OOwrQO7ev4M1bAVle9sB-23" value="&lt;span style=&quot;color: rgb(64, 64, 64); font-family: Inter, system-ui, -apple-system, BlinkMacSystemFont, &amp;quot;Segoe UI&amp;quot;, Roboto, &amp;quot;Noto Sans&amp;quot;, Ubuntu, Cantarell, &amp;quot;Helvetica Neue&amp;quot;, Oxygen, &amp;quot;Open Sans&amp;quot;, sans-serif; font-size: 16.002px; text-align: left;&quot;&gt;Возврат к выбору способа оплаты&lt;/span&gt;" style="html=1;align=center;verticalAlign=top;rounded=1;absoluteArcSize=1;arcSize=10;dashed=0;whiteSpace=wrap;" vertex="1" parent="1">
          <mxGeometry x="490" y="540" width="140" height="50" as="geometry" />
        </mxCell>
        <mxCell id="OOwrQO7ev4M1bAVle9sB-25" value="" style="endArrow=classic;html=1;rounded=0;exitX=0.431;exitY=1.105;exitDx=0;exitDy=0;exitPerimeter=0;" edge="1" parent="1">
          <mxGeometry relative="1" as="geometry">
            <mxPoint x="540" y="590" as="sourcePoint" />
            <mxPoint x="540" y="630" as="targetPoint" />
            <Array as="points">
              <mxPoint x="540" y="620" />
            </Array>
          </mxGeometry>
        </mxCell>
        <mxCell id="OOwrQO7ev4M1bAVle9sB-26" value="" style="ellipse;html=1;shape=endState;fillColor=strokeColor;" vertex="1" parent="1">
          <mxGeometry x="520" y="630" width="40" height="40" as="geometry" />
        </mxCell>
      </root>
    </mxGraphModel>
  </diagram>
  <diagram id="5818P8Z_fxJC9cSXrN7s" name="Страница — 2">
    <mxGraphModel dx="1050" dy="653" grid="1" gridSize="10" guides="1" tooltips="1" connect="1" arrows="1" fold="1" page="1" pageScale="1" pageWidth="1169" pageHeight="827" math="0" shadow="0">
      <root>
        <mxCell id="0" />
        <mxCell id="1" parent="0" />
      </root>
    </mxGraphModel>
  </diagram>
</mxfile>
